<svg width="187" height="80" viewBox="0 0 187 80" fill="none" xmlns="http://www.w3.org/2000/svg">
<g id="Frame" clip-path="url(#clip0_45_882)">
<g id="Group">
<path id="Vector" d="M16.4218 9.05442C16.4218 9.28365 16.0773 9.51287 15.8476 9.51287C13.0915 9.28365 10.3354 9.16903 7.69413 9.39826C5.74188 9.51287 3.6748 9.85671 2.29674 11.1175C1.83739 11.5759 1.37803 12.0344 1.14836 12.722C1.14836 12.8367 1.14836 12.722 1.14836 12.8367V12.9513V13.0659V13.1805C1.14836 13.1805 1.14836 13.2951 1.2632 13.2951C1.2632 13.4097 1.37803 13.5243 1.49287 13.5243L1.60771 13.6389C1.60771 13.6389 1.60771 13.6389 1.72255 13.7536C1.83739 13.8682 1.95223 13.8682 1.95223 13.9828C2.1819 14.212 2.41158 14.3266 2.64125 14.5559C3.10061 14.8997 3.6748 15.3581 4.13415 15.8166C4.36383 16.0458 4.70834 16.3897 4.93802 16.7335C4.93802 14.7851 4.93802 12.8367 4.82318 11.0028C4.82318 9.7421 7.23478 9.7421 7.23478 11.0028C7.23478 13.0659 7.23478 15.2435 7.34962 17.3066C7.34962 19.0258 7.34962 20.745 7.46446 22.4642C8.498 22.3495 9.64638 22.2349 10.6799 22.0057C10.9096 22.0057 11.2541 22.0057 11.369 22.3495C11.369 22.6934 11.1393 22.9226 10.9096 22.9226C9.76122 23.0372 8.61284 23.2665 7.34962 23.3811C7.34962 26.5902 7.46446 29.6848 7.46446 32.894C7.46446 34.1547 5.05286 34.1547 5.05286 32.894C5.05286 31.9771 5.05286 31.0601 5.05286 30.1432C5.05286 27.9656 5.05286 25.9026 4.93802 23.7249C4.47866 23.7249 4.01931 23.8395 3.44512 23.8395C3.21545 23.8395 2.87093 23.8395 2.75609 23.4957C2.64125 23.2665 2.87093 23.0372 3.10061 22.9226C3.6748 22.808 4.24899 22.808 4.82318 22.6934C4.82318 21.7765 4.82318 20.745 4.82318 19.8281C4.5935 19.0258 4.47866 18.1089 4.01931 17.4212C3.55996 16.7335 3.10061 16.275 2.52642 15.8166C1.72255 15.1289 0.459329 14.5559 0.114815 13.4097C-0.344538 12.0344 1.03352 10.659 2.06706 9.97132C3.90447 8.82519 6.20124 8.48135 8.26832 8.36674C10.7948 8.25213 13.3212 8.36674 15.8476 8.59597C16.0773 8.59597 16.4218 8.71058 16.4218 9.05442Z" fill="#FF3E56"/>
<path id="Vector_2" d="M20.4412 24.9856C20.3263 26.1318 20.0967 27.2779 19.867 28.424C19.5225 29.4556 18.9483 31.5186 17.4554 31.7478C15.8477 31.9771 15.1586 30.4871 14.929 29.7994C14.6993 28.9971 14.6993 28.1948 14.5844 27.2779C14.4696 26.2464 14.4696 16.3897 14.4696 12.6074C14.4696 11.3467 16.8812 11.3467 16.8812 12.6074C16.996 15.702 16.996 21.8911 16.996 21.8911C16.996 23.4957 16.996 24.9856 16.996 26.5902C16.996 27.2779 17.1109 27.851 17.1109 28.5387C17.1109 28.6533 17.2257 30.0286 17.6851 30.2579C18.0296 30.4871 18.3741 29.6848 18.4889 29.5702C18.7186 29.1117 18.8335 28.5387 19.0631 27.9656C19.2928 27.0487 19.4076 26.0172 19.6373 25.1003C19.6373 24.5272 20.4412 24.6418 20.4412 24.9856Z" fill="#FF3E56"/>
<path id="Vector_3" d="M31.4656 24.9857C31.3508 26.1318 31.1211 27.2779 30.7766 28.4241C30.5469 28.9971 30.3172 29.5702 30.0876 30.1433C29.8579 30.6017 29.2837 31.5186 28.2502 31.8625C27.676 31.9771 26.9869 31.7478 26.6424 31.2894C26.1831 30.8309 26.0682 30.1433 25.9534 29.4556C25.9534 29.341 25.9534 29.341 25.9534 29.2263C25.7237 30.2579 25.0347 31.8625 23.4269 31.6332C20.556 31.1748 20.556 27.1633 20.7857 25.6733C20.9005 24.871 21.0153 24.0688 21.3599 23.2665C21.4747 22.9226 22.1637 20.745 24.805 20.8596C25.2644 20.8596 25.6089 21.0888 25.9534 21.318H26.0682C26.6424 20.6304 28.365 20.8596 28.365 21.8911C28.365 23.1519 28.2502 24.4126 28.2502 25.6733C28.2502 26.361 28.2502 26.9341 28.365 27.6218C28.365 27.9656 28.5947 30.3725 28.8243 30.3725C29.5134 30.3725 30.0876 28.7679 30.2024 28.1948C30.5469 27.1633 30.7766 26.0172 31.0063 24.8711C30.6618 24.5272 31.4656 24.6418 31.4656 24.9857ZM25.2644 23.1519C25.2644 23.0372 25.2644 22.9226 25.2644 22.9226C25.2644 22.5788 25.1495 22.0057 24.6902 21.8911C24.0011 21.6619 23.3121 24.4126 23.1973 24.6418C23.1973 24.7564 23.0824 24.9857 23.0824 25.1003C23.0824 25.2149 23.0824 25.2149 23.0824 25.3295C23.0824 25.3295 23.0824 25.3295 23.0824 25.4441C22.8528 26.5902 22.8528 27.851 23.0824 28.9971C23.0824 29.1117 23.3121 30.7163 23.8863 30.6017C24.6902 30.6017 24.9198 28.9971 25.0347 28.3094C25.2644 27.2779 25.2644 26.2464 25.2644 25.2149C25.2644 24.5272 25.2644 23.8395 25.2644 23.1519Z" fill="#FF3E56"/>
<path id="Vector_4" d="M41.4565 25.5587C40.9972 25.6734 40.5378 25.788 40.0785 25.788C39.8488 25.788 39.6191 25.788 39.2746 25.788C39.1598 26.361 39.0449 26.8195 38.9301 27.3926C38.5856 28.6533 38.0114 29.914 37.0927 30.831C36.5185 31.404 35.7146 31.8625 34.9108 31.7479C32.614 31.5186 32.1546 29.4556 32.0398 28.7679C31.5804 27.3926 31.4656 25.9026 31.4656 24.5272C31.3508 23.6103 31.3508 22.6934 31.3508 21.7765C31.3508 21.0888 32.0398 20.8596 32.614 20.745C33.1882 20.745 33.8772 21.0888 33.8772 21.7765C33.8772 21.8911 33.8772 22.0057 33.8772 22.1204C33.8772 23.0373 33.8772 24.0688 33.992 24.9857C33.992 25.6734 34.1069 26.2464 34.2217 26.9341C34.2217 27.0487 34.2217 27.2779 34.3366 27.3926C34.3366 27.3926 34.3366 27.3926 34.3366 27.5072V27.6218C34.3366 27.851 34.7959 30.7163 35.3701 30.9456C35.8295 31.0602 36.5185 30.3725 36.7482 30.0287C37.4372 29.1118 37.8965 27.9656 38.2411 26.8195C38.3559 26.4757 38.4707 26.0172 38.4707 25.6734C37.6669 25.5587 36.9778 25.2149 36.5185 24.5272C35.9443 23.8395 35.7146 22.9226 35.9443 22.0057C36.174 21.2034 37.0927 20.6304 38.0114 20.8596C39.1598 21.2034 39.3894 22.235 39.5043 23.2665C39.5043 23.8395 39.5043 24.298 39.5043 24.8711C40.0785 24.8711 40.7675 24.8711 41.3417 24.7565C41.801 24.7565 42.0307 25.4441 41.4565 25.5587ZM38.4707 23.3811C38.4707 23.0373 38.2411 22.4642 38.1262 22.235C38.0114 22.0057 38.0114 22.0057 37.7817 21.8911C37.7817 21.8911 37.6669 21.8911 37.6669 21.7765C37.6669 21.7765 37.4372 21.7765 37.552 21.7765H37.4372C37.4372 21.7765 37.4372 21.7765 37.3224 21.7765C37.3224 21.7765 37.3224 21.7765 37.2075 21.7765C37.2075 21.7765 37.2075 21.7765 37.0927 21.8911C37.0927 22.0057 36.9778 22.0057 36.9778 22.1204V22.235C36.9778 22.3496 36.9778 22.3496 36.863 22.4642C36.863 22.5788 36.863 22.4642 36.863 22.5788C36.863 23.3811 37.0927 23.9542 37.7817 24.4126C38.0114 24.6418 38.3559 24.7565 38.5856 24.7565C38.5856 24.4126 38.5856 23.8395 38.4707 23.3811Z" fill="#FF3E56"/>
<path id="Vector_5" d="M52.481 25.3295C52.0217 25.6733 51.5623 25.9025 50.9881 26.1318C50.5288 26.2464 50.0694 26.4756 49.4952 26.5902C49.4952 27.3925 49.2655 28.1948 49.0359 28.8825C48.6914 29.914 48.0023 30.9455 46.9688 31.404C46.3946 31.7478 45.7056 31.7478 45.0165 31.6332C42.2604 31.2894 41.9159 28.1948 41.9159 27.7363C41.8011 26.8194 41.8011 25.7879 41.9159 24.7564C41.9159 24.1833 42.4901 23.8395 42.9494 23.8395C42.8346 23.2664 42.8346 22.5787 43.0643 22.0057C43.4088 21.0888 44.3275 20.5157 45.2462 20.4011C46.3946 20.2865 47.543 20.7449 48.3468 21.6618C49.0359 22.5787 49.3804 23.8395 49.4952 24.9856C49.4952 25.2149 49.4952 25.3295 49.4952 25.5587C50.2991 25.3295 51.103 24.9856 51.9068 24.6418C52.1365 24.5272 52.2513 24.5272 52.481 24.7564C52.5959 24.9856 52.5959 25.2149 52.481 25.3295ZM48.5765 25.9025C48.5765 25.4441 48.5765 24.871 48.4617 24.4126C48.3468 23.4957 47.8875 22.4641 47.1985 21.7765C46.8539 21.4326 46.5094 21.318 46.1649 21.2034C45.9352 21.2034 45.7056 21.2034 45.4759 21.2034C45.361 21.2034 45.2462 21.2034 45.1314 21.2034H45.0165C44.9017 21.2034 44.9017 21.2034 44.9017 21.2034C44.7869 21.2034 44.672 21.318 44.672 21.318C44.672 21.318 44.5572 21.318 44.5572 21.4326C44.3275 21.5472 44.3275 21.5472 44.2127 21.7765C44.0978 22.0057 43.8682 22.3495 43.8682 22.6934C43.8682 23.2664 43.983 23.7249 44.2127 24.1833C44.3275 24.2979 44.3275 24.2979 44.3275 24.4126C44.4423 24.5272 44.4423 24.6418 44.5572 24.7564C45.1314 25.4441 46.1649 25.7879 47.0836 25.9025C47.6578 26.0171 48.1172 26.0171 48.5765 25.9025ZM48.5765 26.7048C47.0836 26.934 45.4759 26.7048 44.3275 25.9025C44.3275 26.0171 44.3275 26.1318 44.3275 26.1318C44.3275 26.5902 44.3275 27.0487 44.3275 27.5071C44.3275 27.7363 44.672 30.7163 45.4759 30.8309C47.1985 31.0601 48.1172 28.6532 48.3468 27.7363C48.4617 27.3925 48.4617 27.0487 48.5765 26.7048Z" fill="#FF3E56"/>
<path id="Vector_6" d="M64.1945 24.9857C64.0797 26.1318 63.85 27.2779 63.5055 28.4241C63.2758 28.9971 63.0462 29.5702 62.8165 30.1433C62.5868 30.6017 62.0126 31.5186 60.9791 31.8624C60.4049 31.9771 59.7159 31.7478 59.3713 31.2894C58.912 30.8309 58.7971 30.1433 58.6823 29.4556C58.6823 29.341 58.6823 29.1117 58.5675 28.9971C58.3378 29.7994 57.9933 30.7163 57.3043 31.2894C56.9597 31.5186 56.6152 31.7478 56.1559 31.7478C53.5146 31.7478 52.9404 28.6533 52.8256 27.0487C52.5959 25.3295 52.5959 23.6103 52.5959 21.7765C52.5959 20.5157 55.1223 20.5157 55.0075 21.7765C55.0075 23.6103 55.0075 25.3295 55.1223 27.1633C55.1223 27.3925 55.1223 27.6218 55.2372 27.851C55.2372 27.9656 55.2372 28.0802 55.2372 28.0802C55.2372 27.7364 55.352 28.5387 55.2372 28.3094C55.2372 28.6533 55.5817 30.8309 56.041 30.9455C56.8449 31.0602 57.5339 28.3094 57.7636 27.1633C57.8784 26.2464 57.9933 25.4441 58.1081 24.5272C58.1081 23.6103 58.1081 22.6934 58.223 21.7765C58.223 20.5157 60.7494 20.5157 60.6346 21.7765C60.6346 23.0372 60.5197 24.298 60.5197 25.5587C60.5197 26.2464 60.5197 26.8195 60.6346 27.5071C60.6346 27.851 60.8642 30.2579 61.0939 30.2579C61.7829 30.2579 62.3571 28.6533 62.472 28.0802C62.8165 27.0487 63.0462 25.9026 63.2758 24.7564C63.3907 24.5272 64.1945 24.6418 64.1945 24.9857Z" fill="#FF3E56"/>
<path id="Vector_7" d="M75.5635 24.9856C75.4487 26.1317 75.219 27.2779 74.8745 28.424C74.6448 28.9971 74.4151 29.5701 74.1854 30.1432C73.9558 30.6017 73.3816 31.5186 72.348 31.8624C71.7738 31.977 71.0848 31.7478 70.7403 31.2893C70.2809 30.8309 70.1661 30.1432 70.0513 29.4555C69.9364 28.5386 69.8216 27.6217 69.8216 26.7048C69.8216 25.5587 69.8216 24.4125 69.8216 23.2664C69.7067 23.381 69.7067 23.4956 69.5919 23.6103C69.1326 24.4125 68.3287 25.2148 67.41 25.4441C65.9171 25.9025 64.4242 24.871 64.1945 23.381C63.9648 22.0057 64.6539 20.5157 65.9171 19.7134C66.6061 19.3696 67.5248 19.1403 68.2139 19.4842C68.9029 19.828 69.0177 20.4011 68.9029 21.0888C68.788 21.8911 68.2139 22.5787 67.6397 23.1518C67.2951 23.4956 66.9506 23.8395 66.6061 24.0687C66.721 24.4125 66.9506 24.6418 67.1803 24.6418C67.5248 24.6418 67.7545 24.5272 67.8693 24.4125C68.9029 23.6102 69.3622 22.3495 70.0513 21.2034C70.6255 20.5157 72.348 20.7449 72.2332 21.7764C72.2332 23.0372 72.1183 24.2979 72.1183 25.5587C72.1183 26.2464 72.1184 26.8194 72.2332 27.5071C72.2332 27.8509 72.4629 30.2578 72.6925 30.2578C73.3816 30.2578 73.9558 28.6532 74.0706 28.0802C74.4151 27.0486 74.6448 25.9025 74.8745 24.7564C74.7596 24.5272 75.5635 24.6418 75.5635 24.9856ZM66.2616 23.2664C66.4913 23.1518 66.721 22.9226 66.8358 22.6933C67.2951 22.2349 68.099 21.0888 67.5248 20.7449C66.8358 20.4011 66.2616 22.0057 66.2616 23.2664Z" fill="#FF3E56"/>
<path id="Vector_8" d="M99.4498 9.05442C99.4498 9.28365 99.1053 9.51287 98.8757 9.51287C96.2344 9.28365 93.4783 9.16903 90.7221 9.39826C88.8847 9.51287 86.8177 9.97132 85.3248 11.1175C84.8654 11.5759 84.4061 12.0344 84.1764 12.722C84.1764 12.8367 84.1764 12.722 84.1764 12.8367V12.9513V13.0659V13.1805C84.1764 13.1805 84.1764 13.2951 84.2912 13.2951C84.2912 13.4097 84.406 13.5243 84.5209 13.5243L84.6357 13.6389C84.6357 13.6389 84.6357 13.6389 84.7506 13.7536C84.8654 13.8682 84.9802 13.8682 84.9802 13.9828C85.2099 14.212 85.4396 14.3266 85.6693 14.5559C86.1286 14.8997 86.7028 15.3581 87.1622 15.8166C87.3918 16.0458 87.7364 16.3897 87.966 16.7335C87.966 14.7851 87.966 12.8367 87.8512 11.0028C87.8512 9.7421 90.2628 9.7421 90.2628 11.0028C90.2628 13.0659 90.2628 15.2435 90.3776 17.3066C90.3776 19.0258 90.3776 20.745 90.4925 22.4642C91.526 22.3495 92.6744 22.2349 93.7079 22.0057C93.9376 22.0057 94.2821 22.0057 94.397 22.3495C94.5118 22.5788 94.2821 22.9226 93.9376 22.9226C92.7892 23.0372 91.6408 23.2665 90.3776 23.3811C90.3776 26.5902 90.4925 29.6848 90.4925 32.894C90.4925 34.1547 88.0809 34.1547 88.0809 32.894C88.0809 31.9771 88.0809 31.0601 88.0809 30.1432C88.0809 27.9656 88.0809 25.9026 87.966 23.7249C87.5067 23.7249 87.0473 23.8395 86.4731 23.8395C86.2435 23.8395 85.8989 23.8395 85.7841 23.4957C85.6693 23.2665 85.8989 23.0372 86.1286 22.9226C86.7028 22.808 87.277 22.808 87.8512 22.6934C87.8512 21.7765 87.8512 20.745 87.8512 19.8281C87.6215 19.0258 87.5067 18.1089 87.0473 17.4212C86.588 16.7335 86.1286 16.275 85.5544 15.8166C84.7506 15.1289 83.4873 14.5559 83.1428 13.4097C82.6835 12.0344 84.0615 10.659 85.0951 9.97132C86.9325 8.82519 89.2293 8.48135 91.2963 8.36674C93.8228 8.25213 96.3492 8.36674 98.8757 8.59597C99.1053 8.59597 99.4498 8.71058 99.4498 9.05442Z" fill="#FF3E56"/>
<path id="Vector_9" d="M108.063 25.3295C107.603 25.6733 107.144 25.9025 106.57 26.1318C106.11 26.2464 105.651 26.4756 105.077 26.5902C105.077 27.3925 104.847 28.1948 104.618 28.8825C104.273 29.914 103.584 30.9455 102.55 31.404C101.976 31.7478 101.287 31.7478 100.598 31.6332C97.8421 31.2894 97.4976 28.1948 97.4976 27.7363C97.3827 26.8194 97.3827 25.7879 97.4976 24.7564C97.4976 24.1833 98.0718 23.8395 98.5311 23.8395C98.4163 23.2664 98.4163 22.5787 98.6459 22.0057C98.9905 21.0888 99.9092 20.5157 100.828 20.4011C101.976 20.2865 103.125 20.7449 103.929 21.6618C104.618 22.5787 104.962 23.8395 105.077 24.9856C105.077 25.2149 105.077 25.3295 105.077 25.5587C105.881 25.3295 106.685 24.9856 107.488 24.6418C107.718 24.5272 107.833 24.5272 108.063 24.7564C108.178 24.9856 108.178 25.2149 108.063 25.3295ZM104.158 25.9025C104.158 25.4441 104.158 24.871 104.043 24.4126C103.928 23.4957 103.469 22.4641 102.78 21.7765C102.436 21.4326 102.091 21.318 101.747 21.2034C101.517 21.2034 101.287 21.2034 101.058 21.2034C100.943 21.2034 100.828 21.2034 100.713 21.2034H100.598C100.483 21.2034 100.483 21.2034 100.483 21.2034C100.369 21.2034 100.254 21.318 100.254 21.318C100.254 21.318 100.139 21.318 100.139 21.4326C99.9092 21.7765 99.9092 21.7765 99.7943 21.8911C99.6795 22.1203 99.4498 22.4641 99.4498 22.808C99.4498 23.381 99.5647 23.8395 99.7943 24.2979C99.9092 24.4126 99.9092 24.4126 99.9092 24.5272C100.024 24.6418 100.024 24.7564 100.139 24.871C100.713 25.5587 101.747 25.9025 102.665 26.0171C103.239 26.0171 103.699 26.0171 104.158 25.9025ZM104.158 26.7048C102.665 26.934 101.058 26.7048 99.9092 25.9025C99.9092 26.0171 99.9092 26.1318 99.9092 26.1318C99.9092 26.5902 99.9092 27.0487 99.9092 27.5071C99.9092 27.7363 100.254 30.7163 101.058 30.8309C102.78 31.0601 103.699 28.6532 103.929 27.7363C104.043 27.3925 104.158 27.0487 104.158 26.7048Z" fill="#FF3E56"/>
<path id="Vector_10" d="M118.628 25.3295C118.168 25.6733 117.709 25.9025 117.135 26.1318C116.676 26.2464 116.216 26.4756 115.642 26.5902C115.642 27.3925 115.412 28.1948 115.183 28.8825C114.838 29.914 114.149 30.9455 113.116 31.404C112.541 31.7478 111.852 31.7478 111.163 31.6332C108.407 31.2894 108.063 28.1948 108.063 27.7363C107.948 26.8194 107.948 25.7879 108.063 24.7564C108.063 24.1833 108.637 23.8395 109.096 23.8395C108.981 23.2664 108.981 22.5787 109.211 22.0057C109.556 21.0888 110.474 20.5157 111.393 20.4011C112.541 20.2865 113.69 20.7449 114.494 21.6618C115.183 22.5787 115.527 23.8395 115.642 24.9856C115.642 25.2149 115.642 25.3295 115.642 25.5587C116.446 25.3295 117.25 24.9856 118.054 24.6418C118.283 24.5272 118.398 24.5272 118.628 24.7564C118.743 24.9856 118.743 25.2149 118.628 25.3295ZM114.723 25.9025C114.723 25.4441 114.723 24.871 114.608 24.4126C114.494 23.4957 114.034 22.4641 113.345 21.7765C113.001 21.4326 112.656 21.318 112.312 21.2034C112.082 21.2034 111.852 21.2034 111.623 21.2034C111.508 21.2034 111.393 21.2034 111.278 21.2034H111.163C111.048 21.2034 111.048 21.2034 111.048 21.2034C110.934 21.2034 110.819 21.318 110.819 21.318C110.819 21.318 110.704 21.318 110.704 21.4326C110.474 21.5472 110.474 21.5472 110.359 21.7765C110.245 22.0057 110.015 22.3495 110.015 22.6934C110.015 23.2664 110.13 23.7249 110.359 24.1833C110.474 24.2979 110.474 24.2979 110.474 24.4126C110.589 24.5272 110.589 24.6418 110.704 24.7564C111.278 25.4441 112.312 25.7879 113.23 25.9025C113.805 26.0171 114.264 26.0171 114.723 25.9025ZM114.723 26.7048C113.23 26.934 111.623 26.7048 110.474 25.9025C110.474 26.0171 110.474 26.1318 110.474 26.1318C110.474 26.5902 110.474 27.0487 110.474 27.5071C110.474 27.7363 110.819 30.7163 111.623 30.8309C113.345 31.0601 114.264 28.6532 114.494 27.7363C114.608 27.3925 114.608 27.0487 114.723 26.7048Z" fill="#FF3E56"/>
<path id="Vector_11" d="M129.423 24.9857C129.308 26.1318 129.078 27.2779 128.848 28.4241C128.504 29.4556 127.93 31.5186 126.437 31.7478C124.829 31.9771 124.14 30.4871 123.91 29.7994C123.91 29.6848 123.796 29.4556 123.796 29.341C123.566 30.3725 122.877 31.8624 121.269 31.6332C118.398 31.1748 118.398 27.1633 118.628 25.6733C118.743 24.871 118.858 24.0688 119.202 23.2665C119.317 22.9226 120.006 20.745 122.647 20.8596C122.992 20.8596 123.221 20.9742 123.451 21.2034C123.451 18.1089 123.451 14.5559 123.336 12.722C123.336 11.4613 125.748 11.4613 125.748 12.722C125.863 15.8166 125.863 22.0057 125.863 22.0057C125.863 23.6103 125.863 25.1003 125.863 26.7049C125.863 27.3925 125.977 27.9656 125.977 28.6533C125.977 28.7679 126.092 30.1433 126.552 30.3725C126.896 30.6017 127.241 29.7994 127.356 29.6848C127.585 29.2263 127.7 28.6533 127.93 28.0802C128.159 27.1633 128.274 26.1318 128.504 25.2149C128.619 24.5272 129.423 24.6418 129.423 24.9857ZM123.336 23.1518C123.336 23.0372 123.336 22.9226 123.336 22.9226C123.336 22.5788 123.221 22.0057 122.762 21.8911C122.073 21.6619 121.384 24.4126 121.269 24.6418C121.269 24.7564 121.154 24.9857 121.154 25.1003C121.154 25.2149 121.154 25.2149 121.154 25.3295C121.154 25.3295 121.154 25.3295 121.154 25.4441C120.925 26.5902 120.925 27.851 121.154 28.9971C121.154 29.1117 121.384 30.7163 121.958 30.6017C122.762 30.6017 122.992 28.9971 123.107 28.3094C123.336 27.2779 123.336 26.2464 123.336 25.2149C123.336 24.5272 123.336 23.8395 123.336 23.1518Z" fill="#FF3E56"/>
</g>
<g id="Group_2">
<path id="Vector_12" d="M8.26834 50.6591C8.03866 50.6591 7.92383 50.6591 7.80899 50.6591C7.69415 50.6591 7.57931 50.6591 7.46447 50.6591C7.34964 50.6591 7.2348 50.6591 7.11996 50.6591C7.00512 50.6591 6.77544 50.6591 6.77544 50.6591C6.66061 50.6591 6.66061 50.6591 6.54577 50.5445C6.43093 50.3153 6.08641 49.3984 5.39739 48.023C5.28255 47.9084 5.16771 47.7938 4.93803 47.7938C4.93803 47.7938 4.70836 47.7938 4.36384 47.7938C3.78965 47.7938 3.44514 47.7938 3.3303 47.7938C3.21546 47.7938 3.21546 47.9084 3.21546 48.1376C3.21546 48.3668 3.21546 48.8253 3.21546 49.3984C3.21546 49.9714 3.21546 50.4299 3.21546 50.6591C3.21546 50.7737 3.21546 50.7737 3.10062 50.7737C2.98579 50.7737 2.87095 50.7737 2.75611 50.7737C2.64127 50.7737 2.41159 50.7737 2.41159 50.7737C2.29676 50.7737 2.18192 50.7737 2.06708 50.7737C1.95224 50.7737 1.8374 50.7737 1.72257 50.7737C1.60773 50.7737 1.60773 50.7737 1.60773 50.6591C1.60773 50.2007 1.60773 49.513 1.72257 48.5961C1.8374 47.6792 1.8374 46.9915 1.8374 46.533C1.8374 45.2723 1.8374 43.8969 1.72257 42.407V42.2924C1.72257 42.1777 1.8374 42.1777 1.95224 42.1777C2.29676 42.1777 2.87095 42.1777 3.55998 42.1777C4.249 42.1777 4.8232 42.1777 5.16771 42.1777C6.08642 42.1777 6.77544 42.407 7.34964 42.8654C7.92383 43.3239 8.26834 44.0115 8.26834 44.9285C8.03866 45.3869 8.03866 45.8454 7.80899 46.1892C7.69415 46.6476 7.34964 46.9915 6.89028 47.3353C6.77544 47.3353 6.77544 47.4499 6.77544 47.4499C6.77544 47.4499 7.00512 48.023 7.46447 49.0545C7.92383 50.086 8.26834 50.6591 8.26834 50.6591ZM6.54577 45.1577C6.54577 44.47 6.31609 43.8969 5.85674 43.6677C5.51222 43.4385 4.93803 43.4385 4.13417 43.4385C3.44514 43.4385 3.10062 43.4385 3.10062 43.5531C3.10062 43.7823 3.10062 44.3554 3.10062 45.2723V46.4184C3.10062 46.4184 3.10062 46.4184 3.21546 46.4184C3.3303 46.4184 3.44514 46.4184 3.55998 46.4184C3.90449 46.4184 4.36384 46.4184 4.8232 46.4184C5.97158 46.533 6.54577 46.0746 6.54577 45.1577Z" fill="black"/>
<path id="Vector_13" d="M14.8141 47.4499C14.8141 47.7938 14.6993 47.9084 14.4696 48.023C14.2399 48.1376 13.0915 48.2522 10.6799 48.3668C10.6799 48.7107 10.9096 49.0545 11.2541 49.2837C11.5986 49.513 11.9432 49.6276 12.2877 49.6276C12.9767 49.6276 13.5509 49.3984 14.0102 49.0545C14.1251 49.0545 14.1251 48.9399 14.2399 48.9399C14.2399 48.9399 14.2399 48.9399 14.3548 48.9399C14.4696 48.9399 14.4696 49.0545 14.5844 49.3984C14.6993 49.6276 14.8141 49.8568 14.8141 49.8568C14.8141 49.8568 14.8141 49.9714 14.6993 49.9714C14.1251 50.6591 13.3212 50.8883 12.4025 50.8883C11.4838 50.8883 10.6799 50.6591 10.1057 50.086C9.53156 49.513 9.30188 48.8253 9.30188 47.7938C9.30188 46.9915 9.53156 46.1892 10.1057 45.6161C10.6799 44.9284 11.369 44.6992 12.1728 44.6992C12.9767 44.6992 13.5509 44.9284 14.1251 45.5015C14.5844 46.0746 14.8141 46.6476 14.8141 47.4499ZM13.3212 47.1061C13.3212 46.7623 13.2064 46.4184 12.9767 46.1892C12.747 45.96 12.4025 45.8454 12.058 45.8454C11.7135 45.8454 11.369 45.96 11.0245 46.3038C10.6799 46.6476 10.5651 46.9915 10.5651 47.3353C10.5651 47.4499 10.6799 47.4499 10.7948 47.4499C11.369 47.4499 12.058 47.3353 12.9767 47.2207C13.2064 47.2207 13.3212 47.1061 13.3212 47.1061Z" fill="black"/>
<path id="Vector_14" d="M22.1638 45.2723C21.9341 46.3038 21.9341 47.1061 21.9341 47.7938C21.9341 47.7938 21.9341 48.7107 22.0489 50.5445V50.6591C22.0489 50.7737 22.0489 50.8883 21.9341 50.8883C21.8193 50.8883 21.7044 50.8883 21.4748 50.8883C21.2451 50.8883 21.1302 50.8883 21.0154 50.8883C20.9006 50.8883 20.9006 50.7737 20.7857 50.4299C20.7857 50.2007 20.6709 49.9714 20.6709 49.9714C20.6709 49.9714 20.5561 50.086 20.3264 50.2007C20.0967 50.4299 19.867 50.5445 19.6373 50.6591C19.2928 50.7737 18.9483 50.8883 18.7186 50.8883C17.9148 50.8883 17.2257 50.5445 16.7664 49.9714C16.307 49.3984 15.9625 48.7107 15.9625 47.9084C15.9625 46.9915 16.1922 46.3038 16.7664 45.7308C17.3406 45.1577 18.0296 44.8138 18.9483 44.8138C19.5225 44.8138 20.0967 45.0431 20.5561 45.5015C20.6709 45.6161 20.7857 45.7307 20.9006 45.8454C20.9006 45.8454 21.0154 45.7308 21.0154 45.5015C21.0154 45.2723 21.1302 45.1577 21.1302 45.1577C21.2451 45.1577 21.4748 45.1577 21.7044 45.2723C22.0489 45.1577 22.1638 45.1577 22.1638 45.2723ZM20.6709 47.7938C20.6709 47.3353 20.5561 46.8769 20.2115 46.533C19.867 46.1892 19.5225 45.96 19.0632 45.96C18.6038 45.96 18.1445 46.1892 17.7999 46.533C17.4554 46.8769 17.3406 47.3353 17.3406 47.7938C17.3406 48.2522 17.4554 48.7107 17.7999 49.0545C18.1445 49.3984 18.489 49.6276 19.0632 49.6276C19.5225 49.6276 19.9819 49.3984 20.2115 49.0545C20.4412 48.7107 20.6709 48.2522 20.6709 47.7938Z" fill="black"/>
<path id="Vector_15" d="M25.3792 42.2923C25.2644 43.8968 25.2644 45.1576 25.2644 46.3037C25.2644 46.7622 25.2644 47.4498 25.2644 48.4814C25.2644 49.3983 25.2644 50.2006 25.2644 50.659C25.2644 50.7736 25.2644 50.7736 25.1496 50.7736H24.0012C23.8864 50.7736 23.8864 50.7736 23.8864 50.659C23.8864 50.2006 23.8864 49.5129 23.8864 48.4814C23.8864 47.5645 23.8864 46.7622 23.8864 46.3037C23.8864 45.8453 23.8864 45.1576 23.7715 44.3553C23.6567 43.553 23.6567 42.8653 23.6567 42.4069C23.6567 42.2923 23.6567 42.2923 23.7715 42.2923C23.8864 42.2923 24.0012 42.2923 24.116 42.2923C24.2309 42.2923 24.3457 42.2923 24.4605 42.2923C24.5754 42.2923 24.6902 42.2923 24.8051 42.2923C25.0347 42.1776 25.1496 42.1776 25.3792 42.2923Z" fill="black"/>
<path id="Vector_16" d="M35.8295 42.8654C35.7147 42.98 35.5998 43.2092 35.485 43.4385C35.485 43.5531 35.3701 43.7823 35.2553 44.0115C35.2553 44.0115 35.2553 44.0115 35.1405 44.0115C35.1405 44.0115 34.9108 43.8969 34.5663 43.7823C34.2218 43.6677 33.7624 43.5531 33.5327 43.5531C32.8437 43.5531 32.3843 43.8969 32.3843 44.5846C32.3843 44.9284 32.614 45.2723 33.1882 45.5015C34.1069 45.96 34.5663 46.1892 34.6811 46.3038C35.2553 46.7622 35.485 47.3353 35.485 48.023C35.485 48.9399 35.1405 49.6276 34.4514 50.2006C33.7624 50.6591 32.9585 50.8883 32.0398 50.8883C31.5805 50.8883 31.3508 50.8883 31.3508 50.7737C31.3508 50.6591 31.3508 50.4299 31.236 50.086C31.236 49.9714 31.1211 49.7422 31.1211 49.513V49.3983C31.1211 49.3983 31.1211 49.2837 31.236 49.2837C31.3508 49.2837 31.4656 49.2837 31.6953 49.2837C31.925 49.2837 32.0398 49.2837 32.1547 49.2837C33.4179 49.2837 33.9921 48.8253 33.9921 48.023C33.9921 47.6791 33.7624 47.3353 33.1882 46.9915C32.2695 46.4184 31.8102 46.1892 31.8102 46.1892C31.3508 45.7307 31.0063 45.2723 31.0063 44.47C31.0063 43.6677 31.236 43.0946 31.6953 42.6362C32.1547 42.1777 32.8437 41.9485 33.5327 41.9485C33.8772 41.9485 34.2218 41.9485 34.6811 42.0631C35.1405 42.4069 35.485 42.6362 35.8295 42.8654C35.7147 42.7508 35.7147 42.7508 35.8295 42.8654Z" fill="black"/>
<path id="Vector_17" d="M43.4088 47.7938C43.4088 48.5961 43.1792 49.2838 42.605 49.9714C42.0308 50.6591 41.3418 50.8883 40.5379 50.8883C40.0785 50.8883 39.6192 50.7737 39.2747 50.4299C39.1598 50.3153 38.9302 50.086 38.8153 49.9714C38.8153 49.9714 38.8153 49.9714 38.8153 50.0861C38.8153 50.0861 38.8153 50.3153 38.8153 50.7737V52.4929C38.8153 52.6075 38.8153 52.7222 38.7005 52.7222C38.1263 52.7222 37.6669 52.7222 37.5521 52.7222C37.4373 52.7222 37.4373 52.6075 37.4373 52.6075C37.4373 52.0345 37.4373 51.3468 37.4373 50.3153C37.4373 49.2838 37.4373 48.4815 37.4373 48.023C37.4373 47.1061 37.3224 46.1892 37.2076 45.3869V45.2723C37.2076 45.2723 37.2076 45.1577 37.3224 45.1577C37.4373 45.1577 37.6669 45.1577 38.0114 45.0431C38.356 44.9285 38.5856 44.9285 38.7005 44.9285C38.8153 44.9285 38.8153 45.0431 38.8153 45.2723C38.8153 45.3869 38.8153 45.6161 38.8153 45.7308V45.8454C38.8153 45.8454 38.9302 45.8454 38.9302 45.7308C39.5043 45.1577 40.0785 44.8138 40.6527 44.8138C41.4566 44.8138 42.1456 45.1577 42.7198 45.7308C43.1792 46.3038 43.4088 46.9915 43.4088 47.7938ZM42.0308 47.7938C42.0308 47.3353 41.9159 46.8769 41.5714 46.533C41.2269 46.1892 40.8824 45.96 40.423 45.96C39.9637 45.96 39.6192 46.1892 39.2747 46.533C39.045 46.8769 38.8153 47.3353 38.8153 47.7938C38.8153 48.2522 38.9302 48.7107 39.2747 49.0545C39.6192 49.3984 39.9637 49.6276 40.423 49.6276C40.8824 49.6276 41.2269 49.3984 41.5714 49.0545C41.8011 48.7107 42.0308 48.2522 42.0308 47.7938Z" fill="black"/>
<path id="Vector_18" d="M46.5094 43.4384C46.5094 43.8969 46.2798 44.2407 45.7056 44.2407C45.1314 44.2407 44.9017 44.0115 44.9017 43.4384C44.9017 43.2092 45.0165 42.9799 45.1314 42.8653C45.2462 42.7507 45.4759 42.6361 45.7056 42.6361C45.9352 42.6361 46.1649 42.7507 46.2798 42.8653C46.5094 43.0946 46.5094 43.2092 46.5094 43.4384ZM46.5094 45.1576C46.5094 45.5014 46.5094 45.9599 46.5094 46.533C46.5094 47.106 46.3946 47.6791 46.3946 47.9083C46.3946 48.2522 46.3946 48.596 46.3946 49.2837C46.3946 49.8567 46.3946 50.3152 46.3946 50.659C46.3946 50.7736 46.3946 50.7736 46.2798 50.7736H45.1314C45.0165 50.7736 45.0165 50.659 45.0165 50.5444C45.0165 50.3152 45.0165 49.8567 45.0165 49.2837C45.0165 48.7106 45.0165 48.2522 45.0165 48.0229C45.0165 47.6791 45.0165 47.2206 44.9017 46.6476C44.9017 46.0745 44.7869 45.5014 44.7869 45.2722C44.7869 45.1576 44.7869 45.1576 44.9017 45.1576C45.0165 45.1576 45.1314 45.1576 45.2462 45.1576C45.3611 45.1576 45.4759 45.1576 45.5907 45.1576C45.7056 45.1576 45.8204 45.1576 45.9352 45.1576C46.0501 45.1576 46.1649 45.1576 46.2798 45.1576C46.5094 45.043 46.5094 45.043 46.5094 45.1576Z" fill="black"/>
<path id="Vector_19" d="M52.5959 45.2723C52.5959 45.3869 52.5959 45.6161 52.481 45.8453C52.3662 46.1892 52.3662 46.3038 52.2514 46.3038C52.0217 46.1892 51.9068 46.1892 51.6772 46.0746C51.4475 45.96 51.3327 45.9599 51.103 45.9599C50.6436 45.9599 50.1843 46.1892 49.8398 46.533C49.4952 46.8769 49.3804 47.3353 49.3804 47.7938C49.3804 48.2522 49.4952 48.7107 49.8398 49.0545C50.1843 49.3983 50.6436 49.6276 51.103 49.6276C51.3327 49.6276 51.6772 49.513 51.9068 49.3983C52.1365 49.2837 52.2514 49.1691 52.2514 49.1691C52.2514 49.1691 52.3662 49.2837 52.481 49.6276C52.5959 49.9714 52.5959 50.2006 52.5959 50.3153C52.5959 50.4299 52.3662 50.5445 51.9068 50.6591C51.5623 50.7737 51.2178 50.7737 50.9881 50.7737C50.1843 50.7737 49.4952 50.4299 48.9211 49.8568C48.3469 49.2837 48.1172 48.4814 48.1172 47.6791C48.1172 46.8769 48.3469 46.0746 48.9211 45.5015C49.4952 44.9284 50.1843 44.5846 50.9881 44.5846C51.5623 44.5846 52.0217 44.6992 52.5959 45.043C52.481 45.1577 52.5959 45.1577 52.5959 45.2723Z" fill="black"/>
<path id="Vector_20" d="M59.1416 47.4499C59.1416 47.7938 59.0268 47.9084 58.7971 48.023C58.5674 48.1376 57.4191 48.2522 55.0075 48.3668C55.0075 48.7107 55.2371 49.0545 55.5816 49.2837C55.9262 49.513 56.2707 49.6276 56.6152 49.6276C57.3042 49.6276 57.8784 49.3984 58.3378 49.0545C58.4526 49.0545 58.4526 48.9399 58.5674 48.9399C58.5674 48.9399 58.5674 48.9399 58.6823 48.9399C58.7971 48.9399 58.7971 49.0545 58.9119 49.3984C59.0268 49.6276 59.1416 49.8568 59.1416 49.8568C59.1416 49.8568 59.1416 49.9714 59.0268 49.9714C58.4526 50.6591 57.6487 50.8883 56.73 50.8883C55.8113 50.8883 55.0075 50.6591 54.4333 50.086C53.8591 49.513 53.6294 48.8253 53.6294 47.7938C53.6294 46.9915 53.8591 46.1892 54.4333 45.6161C55.0075 44.9284 55.6965 44.6992 56.5003 44.6992C57.3042 44.6992 57.8784 44.9284 58.4526 45.5015C58.912 46.0746 59.1416 46.6476 59.1416 47.4499ZM57.6487 47.1061C57.6487 46.7623 57.5339 46.4184 57.3042 46.1892C57.0745 45.96 56.73 45.8454 56.3855 45.8454C56.041 45.8454 55.6965 45.96 55.352 46.3038C55.0075 46.6476 54.8926 46.9915 54.8926 47.3353C54.8926 47.4499 55.0075 47.4499 55.1223 47.4499C55.6965 47.4499 56.3855 47.3353 57.3042 47.2207C57.5339 47.2207 57.6487 47.1061 57.6487 47.1061Z" fill="black"/>
<path id="Vector_21" d="M63.3906 48.8253C63.3906 49.3984 63.161 49.8568 62.7016 50.3153C62.2423 50.6591 61.7829 50.7737 61.0939 50.7737C60.8642 50.7737 60.7494 50.7737 60.6345 50.7737C60.5197 50.7737 60.5197 50.6591 60.5197 50.4299C60.5197 50.3153 60.5197 50.2007 60.5197 50.0861C60.5197 49.8568 60.5197 49.7422 60.5197 49.7422C60.5197 49.7422 60.5197 49.6276 60.6345 49.6276C60.6345 49.6276 60.7494 49.6276 60.8642 49.6276C60.979 49.6276 61.0939 49.6276 61.0939 49.6276C61.8977 49.6276 62.2423 49.3984 62.2423 48.9399C62.2423 48.7107 62.1274 48.4815 61.7829 48.3669C61.2087 48.023 60.8642 47.9084 60.8642 47.7938C60.5197 47.4499 60.4048 47.1061 60.4048 46.6477C60.4048 46.0746 60.6345 45.6161 61.0939 45.2723C61.5532 44.9285 62.0126 44.8138 62.7016 44.8138C62.7016 44.8138 62.8165 44.8138 62.8165 44.9285C62.8165 44.9285 62.9313 45.1577 62.9313 45.3869C63.0461 45.6161 63.0461 45.8454 63.0461 45.8454C63.0461 45.8454 63.0461 45.96 62.9313 45.96C62.7016 45.96 62.3571 46.0746 62.1274 46.0746C61.7829 46.1892 61.6681 46.3038 61.6681 46.533C61.6681 46.7623 61.7829 46.8769 62.1274 47.1061C62.5868 47.3353 62.9313 47.5646 63.0461 47.6792C63.2758 47.9084 63.3906 48.3669 63.3906 48.8253Z" fill="black"/>
<path id="Vector_22" d="M75.219 50.6591C74.9893 50.6591 74.8744 50.6591 74.7596 50.6591C74.6448 50.6591 74.5299 50.6591 74.4151 50.6591C74.3003 50.6591 74.1854 50.6591 74.0706 50.6591C73.9557 50.6591 73.7261 50.6591 73.7261 50.6591C73.6112 50.6591 73.6112 50.6591 73.4964 50.5445C73.3816 50.3153 73.037 49.3984 72.348 48.023C72.2332 47.9084 72.1183 47.7938 71.8887 47.7938C71.8887 47.7938 71.659 47.7938 71.3145 47.7938C70.7403 47.7938 70.3958 47.7938 70.2809 47.7938C70.1661 47.7938 70.1661 47.9084 70.1661 48.1376C70.1661 48.3668 70.1661 48.8253 70.1661 49.3984C70.1661 49.9714 70.1661 50.4299 70.1661 50.6591C70.1661 50.7737 70.1661 50.7737 70.0512 50.7737C69.9364 50.7737 69.8216 50.7737 69.7067 50.7737C69.5919 50.7737 69.3622 50.7737 69.3622 50.7737C69.2474 50.7737 69.1325 50.7737 69.0177 50.7737C68.9029 50.7737 68.788 50.7737 68.6732 50.7737C68.5583 50.7737 68.5583 50.7737 68.5583 50.6591C68.5583 50.2007 68.5583 49.513 68.6732 48.5961C68.788 47.6792 68.788 46.9915 68.788 46.533C68.788 45.2723 68.788 43.8969 68.6732 42.407V42.2924C68.6732 42.1777 68.788 42.1777 68.9029 42.1777C69.2474 42.1777 69.8216 42.1777 70.5106 42.1777C71.1996 42.1777 71.7738 42.1777 72.1183 42.1777C73.037 42.1777 73.7261 42.407 74.3003 42.8654C74.8744 43.3239 75.219 44.0115 75.219 44.9285C75.219 45.5015 75.1041 45.96 74.9893 46.3038C74.8745 46.6477 74.5299 46.9915 74.0706 47.3353C73.9557 47.3353 73.9557 47.4499 73.9557 47.4499C73.9557 47.4499 74.1854 48.023 74.6448 49.0545C74.9893 50.086 75.219 50.6591 75.219 50.6591ZM73.6112 45.1577C73.6112 44.47 73.3816 43.8969 72.9222 43.6677C72.5777 43.4385 72.0035 43.4385 71.1996 43.4385C70.5106 43.4385 70.1661 43.4385 70.1661 43.5531C70.1661 43.7823 70.1661 44.3554 70.1661 45.2723V46.4184C70.1661 46.4184 70.1661 46.4184 70.2809 46.4184C70.3958 46.4184 70.5106 46.4184 70.6254 46.4184C70.97 46.4184 71.4293 46.4184 71.8887 46.4184C73.037 46.533 73.6112 46.0746 73.6112 45.1577Z" fill="black"/>
<path id="Vector_23" d="M81.7648 47.4499C81.7648 47.7938 81.65 47.9084 81.4203 48.023C81.1906 48.1376 80.0422 48.2522 77.6306 48.3668C77.6306 48.7107 77.8603 49.0545 78.2048 49.2837C78.5493 49.513 78.8938 49.6276 79.2384 49.6276C79.9274 49.6276 80.5016 49.3984 80.9609 49.0545C81.0758 49.0545 81.0758 48.9399 81.1906 48.9399C81.1906 48.9399 81.1906 48.9399 81.3054 48.9399C81.4203 48.9399 81.4203 49.0545 81.5351 49.3984C81.65 49.6276 81.7648 49.8568 81.7648 49.8568C81.7648 49.8568 81.7648 49.9714 81.65 49.9714C81.0758 50.6591 80.2719 50.8883 79.3532 50.8883C78.4345 50.8883 77.6306 50.6591 77.0564 50.086C76.4822 49.513 76.2526 48.8253 76.2526 47.7938C76.2526 46.9915 76.4822 46.1892 77.0564 45.6161C77.6306 44.9284 78.3197 44.6992 79.1235 44.6992C79.9274 44.6992 80.5016 44.9284 81.0758 45.5015C81.5351 46.0746 81.7648 46.6476 81.7648 47.4499ZM80.3867 47.1061C80.3867 46.7623 80.2719 46.4184 80.0422 46.1892C79.8125 45.96 79.468 45.8454 79.1235 45.8454C78.779 45.8454 78.4345 45.96 78.09 46.3038C77.7455 46.6476 77.6306 46.9915 77.6306 47.3353C77.6306 47.4499 77.7455 47.4499 77.8603 47.4499C78.4345 47.4499 79.1235 47.3353 80.0422 47.2207C80.2719 47.2207 80.3867 47.1061 80.3867 47.1061Z" fill="black"/>
<path id="Vector_24" d="M89.2292 45.2723C88.9995 46.3038 88.9995 47.1061 88.9995 47.7938C88.9995 47.7938 88.9995 48.7107 89.1144 50.5445V50.6591C89.1144 50.7737 89.1144 50.8883 88.9995 50.8883C88.8847 50.8883 88.7699 50.8883 88.5402 50.8883C88.3105 50.8883 88.1957 50.8883 88.0808 50.8883C87.966 50.8883 87.966 50.7737 87.8512 50.4299C87.7363 50.0861 87.7363 49.9714 87.7363 49.9714C87.7363 49.9714 87.6215 50.086 87.3918 50.2007C87.1621 50.4299 86.9324 50.5445 86.7028 50.6591C86.3583 50.7737 86.0137 50.8883 85.7841 50.8883C84.9802 50.8883 84.2912 50.5445 83.8318 49.9714C83.3725 49.3984 83.028 48.7107 83.028 47.9084C83.028 46.9915 83.2576 46.3038 83.8318 45.7308C84.406 45.1577 85.095 44.8138 86.0137 44.8138C86.5879 44.8138 87.1621 45.0431 87.6215 45.5015C87.7363 45.6161 87.8512 45.7307 87.966 45.8454C87.966 45.8454 88.0808 45.7308 88.0808 45.5015C88.0808 45.2723 88.1957 45.1577 88.1957 45.1577C88.3105 45.1577 88.5402 45.1577 88.7699 45.2723C88.9995 45.1577 89.2292 45.1577 89.2292 45.2723ZM87.6215 47.7938C87.6215 47.3353 87.5066 46.8769 87.1621 46.533C86.8176 46.1892 86.4731 45.96 86.0137 45.96C85.5544 45.96 85.095 46.1892 84.7505 46.533C84.406 46.8769 84.2912 47.3353 84.2912 47.7938C84.2912 48.2522 84.406 48.7107 84.7505 49.0545C85.095 49.3984 85.4396 49.6276 86.0137 49.6276C86.4731 49.6276 86.9324 49.3984 87.1621 49.0545C87.5066 48.7107 87.6215 48.2522 87.6215 47.7938Z" fill="black"/>
<path id="Vector_25" d="M92.3299 42.2923C92.215 43.8968 92.215 45.1576 92.215 46.3037C92.215 46.7622 92.215 47.4498 92.215 48.4814C92.215 49.3983 92.215 50.2006 92.215 50.659C92.215 50.7736 92.215 50.7736 92.1002 50.7736H90.9518C90.837 50.7736 90.837 50.7736 90.837 50.659C90.837 50.2006 90.837 49.5129 90.837 48.4814C90.837 47.4498 90.837 46.7622 90.837 46.3037C90.837 45.8453 90.837 45.1576 90.7221 44.3553C90.6073 43.553 90.6073 42.8653 90.6073 42.4069C90.6073 42.2923 90.6073 42.2923 90.7221 42.2923C90.837 42.2923 90.9518 42.2923 91.0667 42.2923C91.1815 42.2923 91.2963 42.2923 91.4112 42.2923C91.526 42.2923 91.6408 42.2923 91.7557 42.2923C92.1002 42.1776 92.215 42.1776 92.3299 42.2923Z" fill="black"/>
<path id="Vector_26" d="M103.584 43.3238C103.584 43.4384 103.584 43.4384 103.469 43.4384C103.354 43.4384 102.665 43.4384 101.287 43.3238C101.287 44.5846 101.287 45.5015 101.287 46.3038C101.287 46.7622 101.287 47.4499 101.287 48.3668C101.287 49.2837 101.287 49.9714 101.287 50.4298C101.287 50.5445 101.172 50.5445 101.058 50.5445C100.943 50.5445 100.828 50.5445 100.713 50.5445C100.598 50.5445 100.483 50.5445 100.369 50.5445C100.254 50.5445 100.139 50.5445 100.024 50.5445C99.9092 50.5445 99.7943 50.5445 99.6795 50.5445C99.5647 50.5445 99.5646 50.5445 99.5646 50.4298C99.5646 49.9714 99.5646 49.2837 99.5646 48.3668C99.5646 47.4499 99.5646 46.7622 99.5646 46.3038C99.5646 45.6161 99.5646 44.5846 99.4498 43.3238C98.4163 43.4384 97.6124 43.4384 97.153 43.4384C97.153 43.4384 97.0382 43.4384 97.0382 43.3238C97.0382 43.2092 97.0382 43.0946 97.0382 42.98C97.0382 42.7508 97.153 42.7508 97.153 42.6362C97.153 42.5215 97.153 42.2923 97.2679 42.0631C97.2679 42.0631 97.2679 41.9485 97.3827 41.9485H97.4976C98.9905 42.0631 99.9092 42.0631 100.369 42.0631C100.828 42.0631 101.402 42.0631 102.321 41.9485C102.895 41.9485 103.239 41.8339 103.125 41.8339C103.239 41.8339 103.239 41.8339 103.354 41.9485C103.354 41.9485 103.354 42.0631 103.354 42.5215C103.354 42.5215 103.354 42.6362 103.354 42.7508C103.584 43.2092 103.584 43.3238 103.584 43.3238Z" fill="black"/>
<path id="Vector_27" d="M110.819 45.2723C110.589 46.3038 110.589 47.1061 110.589 47.7938C110.589 47.7938 110.589 48.7107 110.704 50.5445V50.6591C110.704 50.7737 110.704 50.8883 110.589 50.8883C110.474 50.8883 110.359 50.8883 110.13 50.8883C109.9 50.8883 109.785 50.8883 109.67 50.8883C109.556 50.8883 109.556 50.7737 109.441 50.4299C109.326 50.0861 109.326 49.9714 109.326 49.9714C109.326 49.9714 109.211 50.086 108.981 50.2007C108.752 50.4299 108.522 50.5445 108.292 50.6591C107.948 50.7737 107.603 50.8883 107.374 50.8883C106.57 50.8883 105.881 50.5445 105.421 49.9714C104.962 49.3984 104.618 48.7107 104.618 47.9084C104.618 46.9915 104.847 46.3038 105.421 45.7308C105.996 45.1577 106.685 44.8138 107.603 44.8138C108.178 44.8138 108.752 45.0431 109.211 45.5015C109.326 45.6161 109.441 45.7307 109.556 45.8454C109.556 45.8454 109.67 45.7308 109.67 45.5015C109.67 45.2723 109.785 45.1577 109.785 45.1577C109.9 45.1577 110.13 45.1577 110.359 45.2723C110.704 45.1577 110.819 45.1577 110.819 45.2723ZM109.326 47.7938C109.326 47.3353 109.211 46.8769 108.867 46.533C108.522 46.1892 108.178 45.96 107.718 45.96C107.259 45.96 106.799 46.1892 106.455 46.533C106.11 46.8769 105.996 47.3353 105.996 47.7938C105.996 48.2522 106.11 48.7107 106.455 49.0545C106.799 49.3984 107.144 49.6276 107.718 49.6276C108.178 49.6276 108.637 49.3984 108.867 49.0545C109.096 48.7107 109.326 48.2522 109.326 47.7938Z" fill="black"/>
<path id="Vector_28" d="M115.297 48.8253C115.297 49.3984 115.068 49.8568 114.608 50.3153C114.149 50.6591 113.69 50.7737 113.001 50.7737C112.771 50.7737 112.656 50.7737 112.541 50.7737C112.427 50.7737 112.427 50.6591 112.427 50.4299C112.427 50.3153 112.427 50.2007 112.427 50.0861C112.427 49.8568 112.427 49.7422 112.427 49.7422C112.427 49.7422 112.427 49.6276 112.541 49.6276C112.541 49.6276 112.656 49.6276 112.771 49.6276C112.886 49.6276 113.001 49.6276 113.001 49.6276C113.805 49.6276 114.149 49.3984 114.149 48.9399C114.149 48.7107 114.034 48.4815 113.69 48.3669C113.116 48.023 112.771 47.9084 112.771 47.7938C112.427 47.4499 112.312 47.1061 112.312 46.6477C112.312 46.0746 112.541 45.6161 113.001 45.2723C113.46 44.9285 113.919 44.8138 114.608 44.8138C114.608 44.8138 114.723 44.8138 114.723 44.9285C114.723 44.9285 114.838 45.1577 114.838 45.3869C114.953 45.6161 114.953 45.8454 114.953 45.8454C114.953 45.8454 114.953 45.96 114.838 45.96C114.608 45.96 114.264 46.0746 114.034 46.0746C113.69 46.1892 113.575 46.3038 113.575 46.533C113.575 46.7623 113.69 46.8769 114.034 47.1061C114.494 47.3353 114.838 47.5646 114.953 47.6792C115.068 47.9084 115.297 48.3669 115.297 48.8253Z" fill="black"/>
<path id="Vector_29" d="M120.121 49.6275C120.121 49.7421 120.121 49.8568 120.121 49.9714C120.121 50.2006 120.121 50.3152 120.121 50.3152C120.121 50.4298 120.121 50.4298 120.121 50.4298C120.121 50.4298 120.121 50.4298 120.006 50.5444C119.661 50.659 119.202 50.7737 118.398 50.7737C117.479 50.7737 117.02 50.3152 117.02 49.5129C117.02 49.1691 117.02 48.596 117.02 47.9083C117.02 47.2207 117.02 46.6476 117.02 46.3038C117.02 46.1891 116.905 46.0745 116.79 46.0745C116.676 46.0745 116.446 46.0745 116.331 46.0745C116.216 46.0745 116.216 45.8453 116.216 45.6161C116.216 45.5015 116.216 45.3868 116.216 45.2722C116.216 45.1576 116.331 45.1576 116.446 45.043C116.561 45.043 116.676 45.043 116.79 45.043C117.02 45.043 117.02 44.9284 117.02 44.8138C117.02 44.6992 117.02 44.3553 117.02 44.1261C117.02 43.8969 117.02 43.553 117.02 43.3238C117.02 42.98 117.02 42.8654 117.135 42.8654C117.135 42.8654 117.594 42.98 118.283 43.0946C118.398 43.0946 118.398 43.0946 118.398 43.2092C118.398 43.4384 118.398 43.6676 118.398 44.0115C118.398 44.3553 118.398 44.5846 118.398 44.8138C118.398 44.9284 118.398 45.043 118.513 45.043H120.006C120.121 45.043 120.121 45.043 120.121 45.1576C120.121 45.1576 120.121 45.2722 120.121 45.3868C120.121 45.5015 120.121 45.6161 120.121 45.6161C120.121 45.7307 120.121 45.7307 120.121 45.8453C120.121 45.9599 120.121 46.0745 120.121 46.0745C120.121 46.1891 120.121 46.1891 120.006 46.1891C119.891 46.1891 119.546 46.1891 119.317 46.1891C119.087 46.1891 118.743 46.1891 118.628 46.1891C118.628 46.1891 118.628 46.3037 118.513 46.533C118.513 46.8768 118.513 47.2207 118.513 47.7937V48.7106C118.513 49.0545 118.513 49.2837 118.628 49.3983C118.743 49.6275 118.972 49.7421 119.202 49.7421C119.317 49.7421 119.547 49.7421 119.776 49.6275C119.776 49.5129 120.006 49.5129 120.121 49.6275C120.121 49.5129 120.121 49.5129 120.121 49.6275Z" fill="black"/>
<path id="Vector_30" d="M126.781 47.4499C126.781 47.7938 126.666 47.9084 126.437 48.023C126.207 48.1376 125.059 48.2522 122.647 48.3668C122.647 48.7107 122.877 49.0545 123.221 49.2837C123.566 49.513 123.91 49.6276 124.255 49.6276C124.944 49.6276 125.518 49.3984 125.977 49.0545C126.092 49.0545 126.092 48.9399 126.207 48.9399C126.207 48.9399 126.207 48.9399 126.322 48.9399C126.437 48.9399 126.437 49.0545 126.552 49.3984C126.666 49.6276 126.781 49.8568 126.781 49.8568C126.781 49.8568 126.781 49.9714 126.667 49.9714C126.092 50.6591 125.288 50.8883 124.37 50.8883C123.451 50.8883 122.647 50.6591 122.073 50.086C121.499 49.513 121.269 48.8253 121.269 47.7938C121.269 46.9915 121.499 46.1892 122.073 45.6161C122.647 44.9284 123.336 44.6992 124.14 44.6992C124.944 44.6992 125.518 44.9284 126.092 45.5015C126.552 46.0746 126.781 46.6476 126.781 47.4499ZM125.403 47.1061C125.403 46.7623 125.288 46.4184 125.059 46.1892C124.829 45.96 124.485 45.8454 124.14 45.8454C123.796 45.8454 123.451 45.96 123.107 46.3038C122.762 46.6476 122.647 46.9915 122.647 47.3353C122.647 47.4499 122.762 47.4499 122.877 47.4499C123.451 47.4499 124.14 47.3353 125.059 47.2207C125.288 47.2207 125.403 47.1061 125.403 47.1061Z" fill="black"/>
</g>
<g id="Group_3">
<g id="Group_4">
<path id="Vector_31" d="M179.951 38.7392L179.837 38.8539C178.459 42.1776 177.195 45.616 175.013 48.596C169.271 56.3897 159.74 59.9427 150.323 60.0573C146.419 60.1719 142.514 59.7135 138.61 59.255C135.509 58.7966 132.523 58.4527 129.423 58.3381C124.14 57.9943 118.858 57.6504 113.575 58.2235C108.292 58.7966 103.125 59.9427 98.0718 61.7765C90.6074 64.4126 83.7171 68.4241 78.4345 74.4986C78.09 74.8424 77.7455 75.3008 77.6306 75.7593C77.1713 77.2493 78.8939 79.0831 80.1571 79.5415C81.4203 80.1146 82.7984 80 84.0616 79.7708C86.3583 79.3123 88.3106 78.0516 90.3777 77.02C98.1867 72.6647 106.57 68.5387 115.183 66.2464C120.81 64.6418 127.241 62.808 133.097 64.298C136.428 65.1003 139.299 67.0487 141.94 69.1117C144.581 71.2894 147.797 73.0086 151.012 74.1547C155.146 75.6447 159.74 76.2178 164.104 75.6447C167.204 75.3008 170.19 74.3839 173.061 73.0086C176.506 71.2894 179.492 68.6533 181.789 65.5587C183.626 63.1519 185.004 60.2865 185.808 57.3066C187.416 51.6905 188.449 41.6046 181.559 38.9685C181.215 38.8539 180.755 38.7392 180.296 38.6246C180.181 38.7392 180.066 38.6246 179.951 38.7392Z" fill="#333333"/>
</g>
<g id="Group_5">
<g id="Group_6">
<path id="Vector_32" d="M157.788 21.7765C160.084 27.0487 159.74 33.3525 157.328 38.6247C156.639 40.1146 155.835 41.49 154.802 42.7507C153.768 44.0115 152.62 45.3868 152.046 46.9914C151.472 48.8252 151.816 50.7737 152.39 52.6075C152.62 53.4098 153.424 56.8482 154.572 56.8482C146.074 56.7335 138.265 49.9714 137.346 41.3754C137.117 39.7708 137.232 38.1662 137.576 36.5616C137.921 34.957 138.036 33.9255 137.691 32.3209C137.461 31.404 136.887 29.6848 134.476 27.9656C137.346 27.9656 138.38 29.6848 138.954 29.5702C143.548 29.341 142.859 23.0373 143.777 19.8281C144.466 17.4212 145.5 15.0144 146.878 12.8367C147.108 12.3783 149.404 9.05447 149.864 9.39831C151.012 10.086 151.012 12.3783 151.816 13.4098C152.964 15.129 154.457 16.6189 155.606 18.2235C156.524 19.3697 157.213 20.5158 157.788 21.7765Z" fill="#FF3E56"/>
</g>
</g>
<g id="Group_7">
<path id="Vector_33" d="M144.237 29.9141C144.237 29.9141 143.548 34.4986 142.859 36.9055C142.17 39.3123 142.055 41.2608 144.466 42.98C144.466 42.98 143.318 40.5731 144.352 38.1662C144.466 38.1662 146.304 31.404 144.237 29.9141Z" fill="white"/>
</g>
<g id="Group_8">
<g id="Group_9">
<path id="Vector_34" d="M167.893 31.0602C167.893 31.1748 167.893 31.1748 167.893 31.2895C168.238 32.4356 168.353 33.5817 168.353 34.7278C168.238 37.5932 167.204 40.3439 165.367 42.5215C167.434 41.6046 169.157 40.1147 170.42 38.3955C171.224 37.2493 171.913 35.9886 172.257 34.7278C172.487 35.3009 172.717 35.874 172.946 36.5617C173.52 38.7393 173.52 41.0316 172.946 43.2092C172.257 45.5015 170.879 47.5645 169.386 49.3983C169.157 49.7422 168.927 50.086 168.582 50.3152C165.826 53.7536 161.462 55.7021 157.099 55.129C157.328 54.5559 157.328 53.8682 157.328 53.4098C157.328 52.7221 157.443 52.0344 157.443 51.3468C157.558 50.4299 157.558 49.3983 157.558 48.4814C157.673 47.2207 157.673 46.0746 157.902 44.9284C158.362 42.5215 159.051 40.2293 160.199 38.0516C160.314 37.8224 160.429 37.5932 160.659 37.2493C161.348 36.1032 162.152 35.0717 162.726 33.9256C163.759 32.0917 164.104 29.7995 164.219 27.6218C164.333 26.8195 164.333 26.0172 164.219 25.1003C165.252 26.1319 166.171 27.3926 166.86 28.768C167.434 29.5703 167.779 30.2579 167.893 31.0602Z" fill="#FFCA00"/>
</g>
</g>
<g id="Group_10">
<g id="Group_11">
<path id="Vector_35" d="M155.721 11.1175C155.721 10.3152 155.721 9.39828 155.491 8.59599C154.917 6.0745 153.079 4.01146 151.127 2.6361C150.208 2.06304 149.29 1.48997 148.256 1.14613C147.337 0.802292 146.189 0.229226 145.27 0.458453C146.189 0 147.108 0 148.026 0C150.553 0.114613 152.964 1.03152 155.032 2.52149C156.41 3.55301 157.328 4.58453 158.247 6.0745C158.936 7.33524 159.625 8.7106 160.544 9.74212C161.577 10.8883 162.955 11.6905 164.448 12.149C165.367 12.3782 166.286 12.3782 167.204 12.6074C168.123 12.8367 169.042 13.2951 169.846 13.9828C173.291 16.8481 174.439 21.8911 173.865 26.1318C173.75 27.2779 173.406 29.4556 172.487 30.2579C172.257 29.7994 172.142 29.2264 171.913 28.7679C171.683 28.0802 171.453 27.5072 171.109 26.9341C170.535 25.788 169.731 24.6418 168.927 23.7249C167.434 22.0057 165.367 20.6304 163.185 20.0573C163.07 20.9742 163.3 21.8911 163.185 22.808C162.726 22.5788 162.037 22.3496 161.577 22.1203C161.118 21.7765 160.544 21.4327 160.084 21.0888C159.166 20.2865 158.362 19.3696 157.673 18.4527C156.295 16.0458 155.835 13.7536 155.721 11.1175Z" fill="#00D648"/>
</g>
</g>
</g>
<g id="Group_12">
<path id="Vector_36" d="M172.257 55.8167C172.142 55.9313 172.257 56.3897 172.372 56.5043C172.831 59.1404 170.535 61.5473 168.238 62.4642C167.893 62.5788 167.434 62.6934 167.09 62.8081C166.286 62.9227 165.597 63.0373 164.793 62.8081C163.989 62.5788 163.3 62.235 162.841 61.6619C163.644 61.3181 164.448 61.0889 165.137 60.745C167.779 59.5989 170.075 57.9943 172.028 55.9313C172.028 55.9313 172.142 55.8167 172.257 55.8167Z" fill="white"/>
</g>
</g>
<defs>
<clipPath id="clip0_45_882">
<rect width="186.957" height="80" fill="white"/>
</clipPath>
</defs>
</svg>
